<svg xmlns:dc="http://purl.org/dc/elements/1.1/" xmlns:cc="http://creativecommons.org/ns#" xmlns:rdf="http://www.w3.org/1999/02/22-rdf-syntax-ns#" xmlns:svg="http://www.w3.org/2000/svg" xmlns="http://www.w3.org/2000/svg" xmlns:sodipodi="http://sodipodi.sourceforge.net/DTD/sodipodi-0.dtd" xmlns:inkscape="http://www.inkscape.org/namespaces/inkscape" version="1.1" id="Layer_1" x="0px" y="0px" width="100.0px" height="100px" viewBox="0 0 135.41896 135.41896" enable-background="new 0 0 60 100" xml:space="preserve" inkscape:version="0.48.3.1 r9886" sodipodi:docname="connected.svg"><metadata id="metadata9"><rdf:RDF><cc:Work rdf:about=""><dc:format>image/svg+xml</dc:format><dc:type rdf:resource="http://purl.org/dc/dcmitype/StillImage"/><dc:title/></cc:Work></rdf:RDF></metadata><defs id="defs7"/><sodipodi:namedview pagecolor="#ffffff" bordercolor="#666666" borderopacity="1" objecttolerance="10" gridtolerance="10" guidetolerance="10" inkscape:pageopacity="0" inkscape:pageshadow="2" inkscape:window-width="1920" inkscape:window-height="1056" id="namedview5" showgrid="false" showguides="true" inkscape:guide-bbox="true" inkscape:zoom="2.36" inkscape:cx="-14.02487" inkscape:cy="10.674302" inkscape:window-x="1920" inkscape:window-y="24" inkscape:window-maximized="1" inkscape:current-layer="Layer_1" fit-margin-top="0" fit-margin-left="0" fit-margin-right="0" fit-margin-bottom="0"><sodipodi:guide orientation="-0.70710678,0.70710678" position="32.526912,74.953319" id="guide3004"/></sodipodi:namedview>
<path d="M 68.589358,96.528086 86.974134,78.143309 c 1.561999,-1.561998 1.561999,-4.094855 0,-5.656854 -1.561999,-1.561999 -4.094855,-1.561999 -5.656854,0 L 62.932504,90.871232 44.547727,72.486455 62.932504,54.101679 c 1.561999,-1.561999 1.561999,-4.094856 0,-5.656854 -1.561999,-1.561999 -4.094856,-1.561999 -5.656854,0 L 38.890873,66.829601 32.526912,60.46564 21.213204,71.779348 C 10.950256,82.042296 9.6788776,97.889973 17.396241,109.53744 L 0,126.93368 8.4852813,135.41896 25.881523,118.02272 c 11.647463,7.71736 27.49514,6.44598 37.758088,-3.81697 l 11.313708,-11.3137 -6.363961,-6.363964 z" id="path3" inkscape:connector-curvature="0"/>
<path d="m 102.89204,74.953321 11.31372,-11.313712 c 10.26295,-10.262948 11.53433,-26.110625 3.81696,-37.758088 L 135.41896,8.48528 126.93368,0 109.53744,17.396239 C 97.889972,9.67888 82.042292,10.95025 71.779342,21.213202 l -11.3137,11.313708 c 41.502088,41.502087 0.33001,0.330023 42.426398,42.426411 z" id="path3-7" inkscape:connector-curvature="0" sodipodi:nodetypes="csccccscc"/></svg>
